<svg width="87" height="25" viewBox="0 0 87 25" fill="none" xmlns="http://www.w3.org/2000/svg">
<path d="M17.5 11.3333C17.5 17.1667 10 22.1667 10 22.1667C10 22.1667 2.5 17.1667 2.5 11.3333C2.5 9.3442 3.29018 7.43655 4.6967 6.03003C6.10322 4.6235 8.01088 3.83333 10 3.83333C11.9891 3.83333 13.8968 4.6235 15.3033 6.03003C16.7098 7.43655 17.5 9.3442 17.5 11.3333Z" stroke="white" stroke-width="1.5" stroke-linecap="round" stroke-linejoin="round"/>
<path d="M10 13.8333C11.3807 13.8333 12.5 12.714 12.5 11.3333C12.5 9.95262 11.3807 8.83333 10 8.83333C8.61929 8.83333 7.5 9.95262 7.5 11.3333C7.5 12.714 8.61929 13.8333 10 13.8333Z" stroke="white" stroke-width="1.5" stroke-linecap="round" stroke-linejoin="round"/>
<path d="M28.976 16V7.208H25.686V6.2H33.386V7.208H30.096V16H28.976ZM37.4381 16.154C36.7008 16.154 36.0661 15.9533 35.5341 15.552C35.0021 15.1507 34.7361 14.5907 34.7361 13.872C34.7361 13.116 35.0161 12.5327 35.5761 12.122C36.1361 11.7113 36.8875 11.506 37.8301 11.506C38.5768 11.506 39.3141 11.6087 40.0421 11.814V11.59C40.0421 10.9553 39.8555 10.47 39.4821 10.134C39.1088 9.798 38.5815 9.63 37.9001 9.63C37.1908 9.63 36.4581 9.80267 35.7021 10.148L35.3801 9.266C36.2761 8.85533 37.1535 8.65 38.0121 8.65C39.0388 8.65 39.8181 8.916 40.3501 9.448C40.8541 9.952 41.1061 10.6613 41.1061 11.576V16H40.0421V14.922C39.3981 15.7433 38.5301 16.154 37.4381 16.154ZM37.6481 15.286C38.3201 15.286 38.8895 15.104 39.3561 14.74C39.8228 14.376 40.0561 13.9093 40.0561 13.34V12.668C39.3468 12.4627 38.6421 12.36 37.9421 12.36C37.2795 12.36 36.7615 12.4953 36.3881 12.766C36.0148 13.0273 35.8281 13.3867 35.8281 13.844C35.8281 14.2827 36.0008 14.6327 36.3461 14.894C36.7008 15.1553 37.1348 15.286 37.6481 15.286ZM43.3895 16V8.762H44.4675V15.048H47.9955V8.762H49.0735V15.048H52.6015V8.762H53.6935V16H43.3895ZM56.1044 16V8.762H57.1824V12.934L61.1444 8.762H62.4744L59.4504 11.898L62.5584 16H61.2844L58.7084 12.682L57.1824 14.25V16H56.1044ZM67.2118 16.168C66.1944 16.168 65.3358 15.818 64.6358 15.118C63.9451 14.4087 63.5998 13.4987 63.5998 12.388C63.5998 11.3333 63.9311 10.442 64.5938 9.714C65.2564 8.97667 66.0824 8.608 67.0718 8.608C68.1078 8.608 68.9291 8.972 69.5358 9.7C70.1424 10.428 70.4458 11.3427 70.4458 12.444C70.4458 12.584 70.4411 12.71 70.4318 12.822H64.6917C64.7664 13.5593 65.0418 14.1473 65.5178 14.586C66.0031 15.0153 66.5771 15.23 67.2398 15.23C68.1078 15.23 68.8684 14.8893 69.5218 14.208L70.1938 14.81C69.3818 15.7153 68.3878 16.168 67.2118 16.168ZM64.6917 11.954H69.3538C69.2884 11.254 69.0551 10.6753 68.6538 10.218C68.2618 9.75133 67.7251 9.518 67.0438 9.518C66.4278 9.518 65.9004 9.74667 65.4618 10.204C65.0231 10.6613 64.7664 11.2447 64.6917 11.954ZM72.3329 16V8.762H73.4109V11.884H77.5829V8.762H78.6609V16H77.5829V12.836H73.4109V16H72.3329ZM82.8192 16V9.714H80.2292V8.762H86.5012V9.714H83.9112V16H82.8192Z" fill="white"/>
</svg>
